<svg width="800" height="600" viewBox="0 0 800 600" fill="none" xmlns="http://www.w3.org/2000/svg">
  <defs>
    <linearGradient id="grad2" x1="0%" y1="0%" x2="100%" y2="100%">
      <stop offset="0%" style="stop-color:#f59e0b;stop-opacity:1" />
      <stop offset="100%" style="stop-color:#d97706;stop-opacity:1" />
    </linearGradient>
  </defs>
  <rect width="800" height="600" fill="url(#grad2)"/>
  
  <!-- School bag icons -->
  <g fill="white" opacity="0.1">
    <!-- Bag 1 -->
    <rect x="80" y="120" width="80" height="100" rx="8"/>
    <rect x="85" y="125" width="70" height="90" fill="none" stroke="white" stroke-width="2"/>
    <rect x="95" y="135" width="50" height="60" fill="none" stroke="white" stroke-width="1"/>
    <line x1="95" y1="150" x2="145" y2="150" stroke="white" stroke-width="1"/>
    <line x1="95" y1="160" x2="140" y2="160" stroke="white" stroke-width="1"/>
    <line x1="95" y1="170" x2="145" y2="170" stroke="white" stroke-width="1"/>
    
    <!-- Bag 2 -->
    <rect x="200" y="140" width="80" height="100" rx="8"/>
    <rect x="205" y="145" width="70" height="90" fill="none" stroke="white" stroke-width="2"/>
    <rect x="215" y="155" width="50" height="60" fill="none" stroke="white" stroke-width="1"/>
    <line x1="215" y1="170" x2="265" y2="170" stroke="white" stroke-width="1"/>
    <line x1="215" y1="180" x2="260" y2="180" stroke="white" stroke-width="1"/>
    <line x1="215" y1="190" x2="265" y2="190" stroke="white" stroke-width="1"/>
    
    <!-- Bag 3 -->
    <rect x="320" y="160" width="80" height="100" rx="8"/>
    <rect x="325" y="165" width="70" height="90" fill="none" stroke="white" stroke-width="2"/>
    <rect x="335" y="175" width="50" height="60" fill="none" stroke="white" stroke-width="1"/>
    <line x1="335" y1="190" x2="385" y2="190" stroke="white" stroke-width="1"/>
    <line x1="335" y1="200" x2="380" y2="200" stroke="white" stroke-width="1"/>
    <line x1="335" y1="210" x2="385" y2="210" stroke="white" stroke-width="1"/>
  </g>
  
  <!-- Decorative elements -->
  <circle cx="700" cy="150" r="40" fill="white" opacity="0.1"/>
  <circle cx="650" cy="200" r="25" fill="white" opacity="0.1"/>
  <circle cx="720" cy="250" r="30" fill="white" opacity="0.1"/>
</svg>
