<svg width="800" height="600" viewBox="0 0 800 600" fill="none" xmlns="http://www.w3.org/2000/svg">
  <defs>
    <linearGradient id="grad1" x1="0%" y1="0%" x2="100%" y2="100%">
      <stop offset="0%" style="stop-color:#2563eb;stop-opacity:1" />
      <stop offset="100%" style="stop-color:#1d4ed8;stop-opacity:1" />
    </linearGradient>
  </defs>
  <rect width="800" height="600" fill="url(#grad1)"/>
  
  <!-- Book icons -->
  <g fill="white" opacity="0.1">
    <rect x="50" y="100" width="60" height="80" rx="4"/>
    <rect x="55" y="105" width="50" height="70" fill="none" stroke="white" stroke-width="2"/>
    <line x1="65" y1="120" x2="90" y2="120" stroke="white" stroke-width="1"/>
    <line x1="65" y1="130" x2="85" y2="130" stroke="white" stroke-width="1"/>
    <line x1="65" y1="140" x2="90" y2="140" stroke="white" stroke-width="1"/>
    
    <rect x="150" y="120" width="60" height="80" rx="4"/>
    <rect x="155" y="125" width="50" height="70" fill="none" stroke="white" stroke-width="2"/>
    <line x1="165" y1="140" x2="190" y2="140" stroke="white" stroke-width="1"/>
    <line x1="165" y1="150" x2="185" y2="150" stroke="white" stroke-width="1"/>
    <line x1="165" y1="160" x2="190" y2="160" stroke="white" stroke-width="1"/>
    
    <rect x="250" y="140" width="60" height="80" rx="4"/>
    <rect x="255" y="145" width="50" height="70" fill="none" stroke="white" stroke-width="2"/>
    <line x1="265" y1="160" x2="290" y2="160" stroke="white" stroke-width="1"/>
    <line x1="265" y1="170" x2="285" y2="170" stroke="white" stroke-width="1"/>
    <line x1="265" y1="180" x2="290" y2="180" stroke="white" stroke-width="1"/>
  </g>
  
  <!-- Decorative elements -->
  <circle cx="700" cy="150" r="40" fill="white" opacity="0.1"/>
  <circle cx="650" cy="200" r="25" fill="white" opacity="0.1"/>
  <circle cx="720" cy="250" r="30" fill="white" opacity="0.1"/>
</svg>
