<svg width="800" height="600" viewBox="0 0 800 600" fill="none" xmlns="http://www.w3.org/2000/svg">
  <defs>
    <linearGradient id="grad3" x1="0%" y1="0%" x2="100%" y2="100%">
      <stop offset="0%" style="stop-color:#10b981;stop-opacity:1" />
      <stop offset="100%" style="stop-color:#059669;stop-opacity:1" />
    </linearGradient>
  </defs>
  <rect width="800" height="600" fill="url(#grad3)"/>
  
  <!-- Teacher and education icons -->
  <g fill="white" opacity="0.1">
    <!-- Teacher figure -->
    <circle cx="120" cy="150" r="25"/>
    <rect x="95" y="175" width="50" height="80" rx="25"/>
    <line x1="95" y1="200" x2="75" y2="220" stroke="white" stroke-width="3"/>
    <line x1="145" y1="200" x2="165" y2="220" stroke="white" stroke-width="3"/>
    
    <!-- Chalkboard -->
    <rect x="200" y="120" width="120" height="80" fill="none" stroke="white" stroke-width="3"/>
    <line x1="210" y1="140" x2="310" y2="140" stroke="white" stroke-width="2"/>
    <line x1="210" y1="155" x2="300" y2="155" stroke="white" stroke-width="2"/>
    <line x1="210" y1="170" x2="290" y2="170" stroke="white" stroke-width="2"/>
    <line x1="210" y1="185" x2="280" y2="185" stroke="white" stroke-width="2"/>
    
    <!-- Books stack -->
    <rect x="350" y="140" width="60" height="8" fill="white" opacity="0.3"/>
    <rect x="345" y="148" width="70" height="8" fill="white" opacity="0.3"/>
    <rect x="340" y="156" width="80" height="8" fill="white" opacity="0.3"/>
    <rect x="335" y="164" width="90" height="8" fill="white" opacity="0.3"/>
    <rect x="330" y="172" width="100" height="8" fill="white" opacity="0.3"/>
    
    <!-- Pencil -->
    <line x1="450" y1="200" x2="480" y2="170" stroke="white" stroke-width="4"/>
    <polygon points="480,170 485,165 490,170 485,175" fill="white"/>
  </g>
  
  <!-- Decorative elements -->
  <circle cx="700" cy="150" r="40" fill="white" opacity="0.1"/>
  <circle cx="650" cy="200" r="25" fill="white" opacity="0.1"/>
  <circle cx="720" cy="250" r="30" fill="white" opacity="0.1"/>
</svg>
